# xmcd CD database file
# Copyright (C) 1996 Ti Kan
#
# Track frame offsets:
# 	150
# 	18422
# 	36637
# 	56672
# 	78117
# 	99105
# 	116907
# 	139147
# 	159452
# 	177700
# 	196832
#
# Disc length: 2921 seconds
#
# Revision: 1
# Processed by: cddbd v1.4b41PL1 Copyright (c) Steve Scherf et al.
# Submitted via: DiscPlay 3.2
#
DISCID=920b670b
DTITLE=Boyz II Men - The Remix Collection
DYEAR=1900
DGENRE=
TTITLE0=Countdown Interlude/under Pressure/sympin' Interlude
TTITLE1=Vibin'
TTITLE2=I Remember
TTITLE3=Water Runs Dry
TTITLE4=U Know
TTITLE5=Hey Lover
TTITLE6=I'll Make Love To You/motownphilly Interlude
TTITLE7=Uhh Ahh
TTITLE8=Motownphilly
TTITLE9=On Bended Knee
TTITLE10=Brokenhearted
EXTD=
EXTT0=
EXTT1=
EXTT2=
EXTT3=
EXTT4=
EXTT5=
EXTT6=
EXTT7=
EXTT8=
EXTT9=
EXTT10=
PLAYORDER=
